# xmcd CD database file
#
# Track frame offsets:
#	150
#	31450
#	89250
#	130667
#	155977
#
# Disc length: 2357 seconds
#
# Revision: 0
# Processed by: cddbd v1.5.2PL0 Copyright (c) Steve Scherf et al.
# Submitted via: CDex 1.70beta2
#
DISCID=3b093305
DTITLE=加古隆 - Passage
DYEAR=1976
DGENRE=Jazz
TTITLE0=The Infinite
TTITLE1=Waves
TTITLE2=Passage
TTITLE3=Night Music
TTITLE4=Contrast
EXTD=YEAR: 1976
EXTT0=
EXTT1=
EXTT2=
EXTT3=
EXTT4=
PLAYORDER=
